<mxfile><diagram id="dms-5iQj13Wg75nR2hBS" name="ページ1"><mxGraphModel dx="1374" dy="790" grid="1" gridSize="10" guides="1" tooltips="1" connect="1" arrows="1" fold="1" page="1" pageScale="1" pageWidth="827" pageHeight="1169" background="#B3B3B3" math="0" shadow="0"><root><mxCell id="0"/><mxCell id="1" parent="0"/><mxCell id="26" value="" style="edgeStyle=orthogonalEdgeStyle;rounded=0;orthogonalLoop=1;jettySize=auto;html=1;" edge="1" parent="1" source="2" target="22"><mxGeometry relative="1" as="geometry"/></mxCell><mxCell id="2" value="" style="verticalLabelPosition=bottom;verticalAlign=top;html=1;shadow=0;dashed=0;strokeWidth=1;shape=mxgraph.android.phone2;strokeColor=#c0c0c0;" vertex="1" parent="1"><mxGeometry x="400" y="440" width="40" height="80" as="geometry"/></mxCell><mxCell id="13" style="edgeStyle=orthogonalEdgeStyle;rounded=0;orthogonalLoop=1;jettySize=auto;html=1;entryX=1;entryY=0.5;entryDx=0;entryDy=0;entryPerimeter=0;" edge="1" parent="1" source="3" target="11"><mxGeometry relative="1" as="geometry"/></mxCell><mxCell id="25" value="" style="edgeStyle=orthogonalEdgeStyle;rounded=0;orthogonalLoop=1;jettySize=auto;html=1;" edge="1" parent="1" source="3" target="2"><mxGeometry relative="1" as="geometry"/></mxCell><mxCell id="3" value="" style="ellipse;whiteSpace=wrap;html=1;aspect=fixed;" vertex="1" parent="1"><mxGeometry x="240" y="440" width="80" height="80" as="geometry"/></mxCell><mxCell id="7" value="車のｽﾋﾟｰｶｰ" style="strokeColor=#dddddd;shadow=1;strokeWidth=1;rounded=1;absoluteArcSize=1;arcSize=2;labelPosition=center;verticalLabelPosition=middle;align=center;verticalAlign=bottom;spacingLeft=0;fontColor=#999999;fontSize=12;whiteSpace=wrap;spacingBottom=2;" vertex="1" parent="1"><mxGeometry x="79" y="320" width="80" height="80" as="geometry"/></mxCell><mxCell id="8" value="" style="dashed=0;connectable=0;html=1;fillColor=#757575;strokeColor=none;shape=mxgraph.gcp2.speaker;part=1;" vertex="1" parent="7"><mxGeometry x="0.5" width="35" height="50" relative="1" as="geometry"><mxPoint x="-17.5" y="10" as="offset"/></mxGeometry></mxCell><mxCell id="21" value="" style="edgeStyle=orthogonalEdgeStyle;rounded=0;orthogonalLoop=1;jettySize=auto;html=1;" edge="1" parent="1" source="11" target="7"><mxGeometry relative="1" as="geometry"/></mxCell><mxCell id="11" value="" style="html=1;verticalLabelPosition=bottom;align=center;labelBackgroundColor=#ffffff;verticalAlign=top;strokeWidth=2;strokeColor=#0080F0;shadow=0;dashed=0;shape=mxgraph.ios7.icons.monitor;" vertex="1" parent="1"><mxGeometry x="79" y="440" width="80" height="80" as="geometry"/></mxCell><mxCell id="16" value="" style="image;html=1;image=img/lib/clip_art/general/Bluetooth_128x128.png" vertex="1" parent="1"><mxGeometry x="177.5" y="460" width="46" height="40" as="geometry"/></mxCell><mxCell id="17" value="google home mini" style="text;html=1;strokeColor=none;fillColor=none;align=center;verticalAlign=middle;whiteSpace=wrap;rounded=0;" vertex="1" parent="1"><mxGeometry x="239" y="520" width="81" height="40" as="geometry"/></mxCell><mxCell id="18" value="Pioneer&lt;br&gt;CYBER NAVI" style="text;html=1;strokeColor=none;fillColor=none;align=center;verticalAlign=middle;whiteSpace=wrap;rounded=0;" vertex="1" parent="1"><mxGeometry x="79" y="520" width="81" height="40" as="geometry"/></mxCell><mxCell id="22" value="" style="aspect=fixed;perimeter=ellipsePerimeter;html=1;align=center;shadow=0;dashed=0;spacingTop=3;image;image=img/lib/active_directory/internet_cloud.svg;" vertex="1" parent="1"><mxGeometry x="520" y="440" width="126.98" height="80" as="geometry"/></mxCell><mxCell id="24" value="Bluetooth" style="text;html=1;strokeColor=none;fillColor=none;align=center;verticalAlign=middle;whiteSpace=wrap;rounded=0;" vertex="1" parent="1"><mxGeometry x="158" y="490" width="81" height="40" as="geometry"/></mxCell><mxCell id="30" value="" style="edgeStyle=orthogonalEdgeStyle;rounded=0;orthogonalLoop=1;jettySize=auto;html=1;exitX=0.25;exitY=0.1;exitDx=0;exitDy=0;exitPerimeter=0;" edge="1" parent="1" source="27" target="3"><mxGeometry relative="1" as="geometry"><mxPoint x="340" y="370" as="sourcePoint"/><Array as="points"><mxPoint x="280" y="325"/></Array></mxGeometry></mxCell><mxCell id="35" value="" style="edgeStyle=orthogonalEdgeStyle;rounded=0;orthogonalLoop=1;jettySize=auto;html=1;entryX=0.525;entryY=-0.037;entryDx=0;entryDy=0;entryPerimeter=0;exitX=1;exitY=0.3333333333333333;exitDx=0;exitDy=0;exitPerimeter=0;" edge="1" parent="1" source="27" target="2"><mxGeometry relative="1" as="geometry"/></mxCell><mxCell id="27" value="運転手" style="shape=umlActor;verticalLabelPosition=bottom;verticalAlign=top;html=1;outlineConnect=0;" vertex="1" parent="1"><mxGeometry x="320" y="320" width="40" height="70" as="geometry"/></mxCell><mxCell id="33" value="Pixel5" style="text;html=1;strokeColor=none;fillColor=none;align=center;verticalAlign=middle;whiteSpace=wrap;rounded=0;" vertex="1" parent="1"><mxGeometry x="400" y="520" width="40" height="40" as="geometry"/></mxCell><mxCell id="36" value="" style="verticalLabelPosition=bottom;verticalAlign=top;html=1;shape=mxgraph.basic.x;fillColor=#a20025;strokeColor=#6F0000;fontColor=#ffffff;" vertex="1" parent="1"><mxGeometry x="374" y="320" width="40" height="40" as="geometry"/></mxCell><mxCell id="39" value="車内で&lt;br&gt;操作したくない" style="text;html=1;strokeColor=none;fillColor=none;align=center;verticalAlign=middle;whiteSpace=wrap;rounded=0;" vertex="1" parent="1"><mxGeometry x="431" y="320" width="90" height="40" as="geometry"/></mxCell><mxCell id="40" value="音声で&lt;br&gt;命令" style="text;html=1;strokeColor=none;fillColor=none;align=center;verticalAlign=middle;whiteSpace=wrap;rounded=0;" vertex="1" parent="1"><mxGeometry x="220" y="320" width="60" height="40" as="geometry"/></mxCell><mxCell id="43" value="" style="points=[[0.005,0.09,0],[0.08,0,0],[0.76,0.25,0],[1,0.92,0],[0.91,0.995,0],[0.57,0.995,0],[0.045,0.955,0],[0.005,0.43,0]];verticalLabelPosition=bottom;html=1;verticalAlign=top;aspect=fixed;align=center;pointerEvents=1;shape=mxgraph.cisco19.3g_4g_indicator;fillColor=#005073;strokeColor=none;" vertex="1" parent="1"><mxGeometry x="344.5" y="465" width="30" height="30" as="geometry"/></mxCell><mxCell id="44" value="テザリング" style="text;html=1;strokeColor=none;fillColor=none;align=center;verticalAlign=middle;whiteSpace=wrap;rounded=0;" vertex="1" parent="1"><mxGeometry x="319" y="490" width="81" height="40" as="geometry"/></mxCell><mxCell id="45" value="" style="points=[[0,0.58,0],[0.09,0.58,0],[0.36,0.39,0],[0.64,0.195,0],[0.91,0,0],[1,0,0],[1,0.25,0],[1,0.5,0],[1,0.75,0],[1,1,0],[0,1,0],[0.09,1,0],[0.36,1,0],[0.64,1,0],[0.91,1,0],[0,0.79,0]];verticalLabelPosition=bottom;html=1;verticalAlign=top;aspect=fixed;align=center;pointerEvents=1;shape=mxgraph.cisco19.wifi_indicator;fillColor=#005073;strokeColor=none;" vertex="1" parent="1"><mxGeometry x="460" y="465" width="30" height="30" as="geometry"/></mxCell><mxCell id="47" value="career&lt;br&gt;(Rakuten)" style="text;html=1;strokeColor=none;fillColor=none;align=center;verticalAlign=middle;whiteSpace=wrap;rounded=0;" vertex="1" parent="1"><mxGeometry x="440" y="495" width="81" height="40" as="geometry"/></mxCell><mxCell id="48" value="google Asistant&lt;br&gt;(OK Google基地局)" style="text;html=1;strokeColor=none;fillColor=none;align=center;verticalAlign=middle;whiteSpace=wrap;rounded=0;" vertex="1" parent="1"><mxGeometry x="520" y="520" width="120" height="40" as="geometry"/></mxCell></root></mxGraphModel></diagram></mxfile>